<svg id="visual" viewBox="0 0 900 600" width="900" height="600" xmlns="http://www.w3.org/2000/svg" xmlns:xlink="http://www.w3.org/1999/xlink" version="1.1"><rect x="0" y="0" width="900" height="600" fill="#6c63ff"></rect><path d="M0 517L21.5 510.7C43 504.3 86 491.7 128.8 484.7C171.7 477.7 214.3 476.3 257.2 477.7C300 479 343 483 385.8 491.5C428.7 500 471.3 513 514.2 516.5C557 520 600 514 642.8 513.3C685.7 512.7 728.3 517.3 771.2 518.5C814 519.7 857 517.3 878.5 516.2L900 515L900 601L878.5 601C857 601 814 601 771.2 601C728.3 601 685.7 601 642.8 601C600 601 557 601 514.2 601C471.3 601 428.7 601 385.8 601C343 601 300 601 257.2 601C214.3 601 171.7 601 128.8 601C86 601 43 601 21.5 601L0 601Z" fill="#4e46e5"></path><path d="M0 539L21.5 539.8C43 540.7 86 542.3 128.8 532.7C171.7 523 214.3 502 257.2 497.2C300 492.3 343 503.7 385.8 509.7C428.7 515.7 471.3 516.3 514.2 512.8C557 509.3 600 501.7 642.8 499.3C685.7 497 728.3 500 771.2 506C814 512 857 521 878.5 525.5L900 530L900 601L878.5 601C857 601 814 601 771.2 601C728.3 601 685.7 601 642.8 601C600 601 557 601 514.2 601C471.3 601 428.7 601 385.8 601C343 601 300 601 257.2 601C214.3 601 171.7 601 128.8 601C86 601 43 601 21.5 601L0 601Z" fill="#212f7b"></path><path d="M0 566L21.5 563C43 560 86 554 128.8 552.2C171.7 550.3 214.3 552.7 257.2 552.5C300 552.3 343 549.7 385.8 552.8C428.7 556 471.3 565 514.2 566.3C557 567.7 600 561.3 642.8 556.3C685.7 551.3 728.3 547.7 771.2 543.3C814 539 857 534 878.5 531.5L900 529L900 601L878.5 601C857 601 814 601 771.2 601C728.3 601 685.7 601 642.8 601C600 601 557 601 514.2 601C471.3 601 428.7 601 385.8 601C343 601 300 601 257.2 601C214.3 601 171.7 601 128.8 601C86 601 43 601 21.5 601L0 601Z" fill="#10101a"></path></svg>